<svg width="143" height="26" viewBox="0 0 143 26" fill="none" xmlns="http://www.w3.org/2000/svg">
<path fill-rule="evenodd" clip-rule="evenodd" d="M36.494 18.4356H33.5435V9.23706H30.1016V6.9375H39.9359V9.23706H36.494V18.4356Z" fill="#5334AB"/>
<path fill-rule="evenodd" clip-rule="evenodd" d="M46.4928 12.4431C46.4928 12.0054 46.2742 11.7862 45.8375 11.7862H43.8709C43.4339 11.7862 43.2152 12.0054 43.2152 12.4431V15.7285C43.2152 16.1665 43.4339 16.3853 43.8709 16.3853H45.8375C46.2742 16.3853 46.4928 16.1665 46.4928 15.7285V12.4431ZM49.3587 15.9764C49.3587 16.7976 49.1263 17.4411 48.6622 17.9066C48.1977 18.372 47.5559 18.6046 46.7361 18.6046H42.9663C42.1469 18.6046 41.5048 18.372 41.0403 17.9066C40.5758 17.4411 40.3438 16.7976 40.3438 15.9764V12.1985C40.3438 11.377 40.5758 10.7338 41.0403 10.2687C41.5048 9.80323 42.1469 9.57031 42.9663 9.57031H46.7361C47.5559 9.57031 48.1977 9.80323 48.6622 10.2687C49.1263 10.7338 49.3587 11.377 49.3587 12.1985V15.9764Z" fill="#5334AB"/>
<path fill-rule="evenodd" clip-rule="evenodd" d="M54.0948 14.9863V18.4356H51.2266V6.9375H54.0948V12.7687H55.4061L57.2089 9.72997H60.2411L57.7825 13.9185L60.2411 18.4356H57.2089L55.324 14.9863H54.0948Z" fill="#5334AB"/>
<path fill-rule="evenodd" clip-rule="evenodd" d="M64.6596 11.6044C64.2226 11.6044 64.0043 11.8236 64.0043 12.2616V13.1648H66.7902V12.2616C66.7902 11.8236 66.5715 11.6044 66.1345 11.6044H64.6596ZM69.328 18.2604C67.2189 18.4796 65.3066 18.589 63.591 18.589C62.848 18.589 62.2527 18.3647 61.8045 17.9155C61.3566 17.4666 61.1328 16.8701 61.1328 16.1251V12.1829C61.1328 11.3617 61.3649 10.7185 61.8293 10.2531C62.2935 9.7876 62.9356 9.55469 63.7554 9.55469H67.0333C67.8528 9.55469 68.4945 9.7876 68.959 10.2531C69.4235 10.7185 69.6559 11.3617 69.6559 12.1829V15.2216H64.0011V15.8788C64.0011 16.0431 64.0555 16.18 64.1651 16.2894C64.2739 16.3992 64.4108 16.4537 64.5748 16.4537C65.6565 16.4537 67.2405 16.3714 69.328 16.2074V18.2604Z" fill="#5334AB"/>
<path fill-rule="evenodd" clip-rule="evenodd" d="M76.3663 11.9366C75.7868 11.9366 75.1314 12.046 74.3995 12.2652V18.4247H71.5312V9.71899H74.0716L74.2356 10.5405C74.7491 10.2011 75.2762 9.95191 75.8171 9.79302C76.358 9.63449 76.8142 9.55469 77.1857 9.55469H77.9233C78.6663 9.55469 79.2616 9.7793 79.7098 10.2285C80.1577 10.6774 80.3819 11.2743 80.3819 12.0185V18.4247H77.5136V12.5115C77.5136 12.3472 77.4588 12.2103 77.3496 12.1009C77.2404 11.9915 77.1039 11.9366 76.9399 11.9366H76.3663Z" fill="#5334AB"/>
<path fill-rule="evenodd" clip-rule="evenodd" d="M87.8224 18.4356H81.9219V16.1361H83.3971V9.23706H81.9219V6.9375H87.8224V9.23706H86.3472V16.1361H87.8224V18.4356Z" fill="#5334AB"/>
<path fill-rule="evenodd" clip-rule="evenodd" d="M94.3741 11.9366C93.795 11.9366 93.1392 12.046 92.4074 12.2652V18.4247H89.5391V9.71899H92.0794L92.2434 10.5405C92.7569 10.2011 93.2844 9.95191 93.8249 9.79302C94.3661 9.63449 94.822 9.55469 95.1935 9.55469H95.9311C96.6741 9.55469 97.2697 9.7793 97.7176 10.2285C98.1655 10.6774 98.39 11.2743 98.39 12.0185V18.4247H95.5214V12.5115C95.5214 12.3472 95.4666 12.2103 95.3574 12.1009C95.2483 11.9915 95.1117 11.9366 94.9477 11.9366H94.3741Z" fill="#5334AB"/>
<path fill-rule="evenodd" clip-rule="evenodd" d="M99.9374 16.1249C102.155 16.2892 103.904 16.3711 105.182 16.3711C105.346 16.3711 105.483 16.3166 105.592 16.2072C105.701 16.0974 105.756 15.9606 105.756 15.7963V15.2214H102.232C101.489 15.2214 100.893 14.9971 100.445 14.5479C99.9972 14.099 99.7734 13.5025 99.7734 12.7575V12.1826C99.7734 11.438 99.9972 10.8414 100.445 10.3922C100.893 9.94336 101.489 9.71875 102.232 9.71875H107.805V11.854H103.215C103.052 11.854 102.915 11.9093 102.806 12.0183C102.696 12.1281 102.642 12.2649 102.642 12.4289C102.642 12.5932 102.696 12.7304 102.806 12.8395C102.915 12.9493 103.052 13.0038 103.215 13.0038H106.166C106.909 13.0038 107.504 13.2284 107.952 13.6773C108.4 14.1265 108.624 14.7234 108.624 15.468V16.1249C108.624 16.8698 108.4 17.4664 107.952 17.9153C107.504 18.3645 106.909 18.5887 106.166 18.5887C104.232 18.5887 102.155 18.4793 99.9374 18.2601V16.1249Z" fill="#5334AB"/>
<mask id="mask0_20901_53856" style="mask-type:alpha" maskUnits="userSpaceOnUse" x="0" y="0" width="143" height="26">
<path fill-rule="evenodd" clip-rule="evenodd" d="M0 26.0009H143V0.203125H0V26.0009Z" fill="white"/>
</mask>
<g mask="url(#mask0_20901_53856)">
<path fill-rule="evenodd" clip-rule="evenodd" d="M110.736 9.07299H113.603V6.77344H110.736V9.07299ZM113.605 10.0604V18.4374H110.737V12.278H109.508V10.0604H113.605Z" fill="#5334AB"/>
<path fill-rule="evenodd" clip-rule="evenodd" d="M119.339 15.8847C120.027 15.8847 120.683 15.8302 121.305 15.7204V11.9425H119.011C118.574 11.9425 118.356 12.1617 118.356 12.5993V15.3098C118.356 15.4741 118.41 15.611 118.52 15.7204C118.629 15.8302 118.765 15.8847 118.929 15.8847H119.339ZM121.303 17.775C120.243 17.9946 119.314 18.1036 118.517 18.1036H117.943C117.2 18.1036 116.604 17.8794 116.156 17.4301C115.708 16.9813 115.484 16.3847 115.484 15.6398V12.3547C115.484 11.5336 115.716 10.8904 116.181 10.4246C116.645 9.95948 117.287 9.72656 118.107 9.72656H124.171V18.9251C124.171 19.6698 123.947 20.2663 123.499 20.7155C123.051 21.1644 122.455 21.389 121.713 21.389C119.997 21.389 118.085 21.2792 115.976 21.0604V18.9251C118.063 19.0894 119.647 19.1714 120.729 19.1714C120.893 19.1714 121.03 19.1165 121.139 19.0071C121.248 18.8973 121.303 18.7608 121.303 18.5965V17.775Z" fill="#5334AB"/>
<path fill-rule="evenodd" clip-rule="evenodd" d="M129.079 9.89428C130.139 9.67544 131.068 9.56566 131.866 9.56566H132.603C133.346 9.56566 133.942 9.79028 134.39 10.2395C134.838 10.6884 135.062 11.2853 135.062 12.0295V18.4356H132.194V12.3581C132.194 12.1938 132.139 12.057 132.03 11.9476C131.92 11.8381 131.784 11.7832 131.62 11.7832H131.046C130.631 11.7832 130.251 11.8053 129.907 11.849C129.563 11.893 129.287 11.9255 129.079 11.9476V18.4356H126.211V6.9375H129.079V9.89428Z" fill="#5334AB"/>
<path fill-rule="evenodd" clip-rule="evenodd" d="M143.002 18.4344C141.942 18.5438 140.904 18.5987 139.887 18.5987C139.144 18.5987 138.549 18.3741 138.101 17.9253C137.652 17.4764 137.429 16.8795 137.429 16.1349V11.9463H136.445V9.72876H137.429L137.757 7.75781H140.297V9.72876H142.346V11.9463H140.297V15.7243C140.297 15.8886 140.352 16.0255 140.461 16.1349C140.57 16.2446 140.707 16.2988 140.871 16.2988H143.002V18.4344Z" fill="#5334AB"/>
</g>
<path fill-rule="evenodd" clip-rule="evenodd" d="M12.8978 0L0 12.6324L2.58744 15.1667L15.4852 2.53421L12.8978 0Z" fill="url(#paint0_linear_20901_53856)"/>
<path fill-rule="evenodd" clip-rule="evenodd" d="M12.9078 0L10.3203 2.53421L23.0427 15.9545L25.6302 13.4203L12.9078 0Z" fill="url(#paint1_linear_20901_53856)"/>
<path fill-rule="evenodd" clip-rule="evenodd" d="M10.3203 23.4606L12.9078 25.9948L25.8055 13.3623L23.2181 10.8281L10.3203 23.4606Z" fill="url(#paint2_linear_20901_53856)"/>
<path fill-rule="evenodd" clip-rule="evenodd" d="M5.16406 18.4098L7.74674 20.9392L15.4876 13.3571L12.9052 10.8281L5.16406 18.4098Z" fill="url(#paint3_linear_20901_53856)"/>
<path fill-rule="evenodd" clip-rule="evenodd" d="M5.16406 18.4199L12.9051 26.0017L15.4876 23.4724L7.74656 15.8906L5.16406 18.4199Z" fill="url(#paint4_linear_20901_53856)"/>
<mask id="mask1_20901_53856" style="mask-type:alpha" maskUnits="userSpaceOnUse" x="5" y="15" width="11" height="11">
<path fill-rule="evenodd" clip-rule="evenodd" d="M5.16406 18.4199L12.9051 26.0017L15.4876 23.4724L7.74656 15.8906L5.16406 18.4199Z" fill="white"/>
</mask>
<g mask="url(#mask1_20901_53856)">
</g>
<defs>
<linearGradient id="paint0_linear_20901_53856" x1="7.74262" y1="-7.58333" x2="-7.42076" y2="7.89856" gradientUnits="userSpaceOnUse">
<stop stop-color="#4421A5" stop-opacity="0.01"/>
<stop offset="1" stop-color="#4421A5"/>
</linearGradient>
<linearGradient id="paint1_linear_20901_53856" x1="2.5777" y1="7.58333" x2="17.7411" y2="23.0652" gradientUnits="userSpaceOnUse">
<stop stop-color="#4421A5"/>
<stop offset="1" stop-color="#4421A5" stop-opacity="0"/>
</linearGradient>
<linearGradient id="paint2_linear_20901_53856" x1="18.0629" y1="3.2448" x2="2.89957" y2="18.7267" gradientUnits="userSpaceOnUse">
<stop stop-color="#4421A5"/>
<stop offset="1" stop-color="#4421A5" stop-opacity="0"/>
</linearGradient>
<linearGradient id="paint3_linear_20901_53856" x1="10.3258" y1="25.9947" x2="21.6159" y2="13.945" gradientUnits="userSpaceOnUse">
<stop stop-color="#4421A5"/>
<stop offset="1" stop-color="#4421A5" stop-opacity="0"/>
</linearGradient>
<linearGradient id="paint4_linear_20901_53856" x1="20.6493" y1="20.9462" x2="10.5404" y2="10.6249" gradientUnits="userSpaceOnUse">
<stop stop-color="#4421A5"/>
<stop offset="1" stop-color="#4421A5" stop-opacity="0"/>
</linearGradient>
</defs>
</svg>
