<svg width="78" height="36" viewBox="0 0 78 36" fill="none" xmlns="http://www.w3.org/2000/svg">
<path fill-rule="evenodd" clip-rule="evenodd" d="M1 17.3268H14.9781L13.2483 14.3397C12.9023 13.7434 12.2634 13.3756 11.5727 13.3756H7.86444L11.032 7.90373L22.5114 27.7386L30.8279 13.3756H26.2514L22.5114 19.8358L11.032 0L1 17.3268Z" fill="url(#paint0_linear_1739_58534)"/>
<path fill-rule="evenodd" clip-rule="evenodd" d="M66.9086 15.7358H69.5274V13.125H66.9086V15.7358ZM59.8644 25.1192C58.334 25.1192 57.0889 23.8782 57.0889 22.3523C57.0889 20.8268 58.334 19.5853 59.8644 19.5853C61.3943 19.5853 62.6394 20.8268 62.6394 22.3523C62.6394 23.8782 61.3943 25.1192 59.8644 25.1192ZM59.8644 16.9746C58.7883 16.9746 57.7862 17.2917 56.9437 17.8346V13.1257H54.3253V27.4607H56.9437V26.8695C57.7862 27.4129 58.7883 27.73 59.8644 27.73C62.8383 27.73 65.2573 25.3175 65.2573 22.3523C65.2573 19.387 62.8383 16.9746 59.8644 16.9746ZM77.0004 17.0348V18.3501C77.0004 19.0653 76.4184 19.6446 75.7016 19.6446H74.382V22.9753C74.382 24.0198 75.2307 24.8666 76.2784 24.8666H77.0004V27.4769H76.2784C73.7848 27.4769 71.7641 25.4611 71.7641 22.9753V13.1258H73.0833C73.8005 13.1258 74.382 13.7056 74.382 14.4207V17.0348H77.0004ZM42.8738 27.477H52.3324V26.1266C52.3324 25.4309 51.7661 24.8657 51.0674 24.8657H47.6582L52.6861 17.0349H43.5151V19.6452H47.9017L42.8738 27.477ZM69.5269 27.4889H66.9081V17.0345H69.5269V27.4889ZM35.5074 18.0767L33.7492 22.3681H37.1722L35.5074 18.0767ZM41.9613 27.477H40.3981C39.6486 27.477 38.976 27.017 38.7049 26.3202L38.1391 24.8658H32.7258L31.6563 27.477H28.8281L34.3288 13.9376C34.5305 13.4459 35.0085 13.1259 35.5402 13.1259C36.0809 13.1259 36.5669 13.4572 36.7616 13.9594L41.9613 27.477Z" fill="url(#paint1_linear_1739_58534)"/>
<defs>
<linearGradient id="paint0_linear_1739_58534" x1="15.9139" y1="0" x2="15.9139" y2="27.7386" gradientUnits="userSpaceOnUse">
<stop stop-color="#18C994"/>
<stop offset="1" stop-color="#17875E"/>
</linearGradient>
<linearGradient id="paint1_linear_1739_58534" x1="35.3845" y1="15.9649" x2="35.3845" y2="24.9713" gradientUnits="userSpaceOnUse">
<stop stop-color="white"/>
<stop offset="1" stop-color="white" stop-opacity="0.72"/>
</linearGradient>
</defs>
</svg>
